<svg width="60" height="60" viewBox="0 0 60 60" fill="none" xmlns="http://www.w3.org/2000/svg">
<path d="M54.6094 19.4531H40.5469V5.39062C40.5469 3.44813 38.9738 1.875 37.0312 1.875H22.9688C21.0263 1.875 19.4531 3.45 19.4531 5.39062V19.4531H5.39062C3.44813 19.4531 1.875 21.0281 1.875 22.9688V37.0312C1.875 38.9738 3.45 40.5469 5.39062 40.5469H19.4531V54.6094C19.4531 56.5519 21.0281 58.125 22.9688 58.125H37.0312C38.9738 58.125 40.5469 56.55 40.5469 54.6094V40.5469H54.6094C56.55 40.5469 58.125 38.9738 58.125 37.0312V22.9688C58.125 21.0263 56.55 19.4531 54.6094 19.4531Z" fill="white"/>
</svg>
