<svg width="60" height="60" viewBox="0 0 60 60" fill="none" xmlns="http://www.w3.org/2000/svg">
<path d="M55.7789 11.2793C54.4887 5.98009 50.2582 1.6629 44.9965 0.296493C41.2242 -0.683194 37.6137 0.894149 34.5504 3.14766C34.1695 3.42774 33.7348 3.58477 33.3199 3.78985L36.6387 5.92384C37.5082 6.48282 37.7613 7.64298 37.2012 8.51485C36.6785 9.32931 35.5289 9.67032 34.6102 9.07735L22.8316 1.5047C20.4059 0.233212 17.748 -0.417179 15.0023 0.296493C9.74062 1.66407 5.51016 5.98009 4.21992 11.2793C3.03281 16.1566 4.1707 20.7492 6.73945 24.2203C9.47695 27.9199 10.5691 32.2664 10.9922 36.8004C11.5078 42.327 12.2027 47.8348 13.4461 53.2441L14.3602 57.2227C14.734 58.8481 16.1754 60 17.8371 60C19.4742 60 20.9016 58.8809 21.2988 57.2859L25.3383 41.0649C25.8727 38.918 27.7945 37.4133 29.9977 37.4133C32.2008 37.4133 34.1227 38.9192 34.657 41.0649L38.6965 57.2859C39.0937 58.8809 40.5211 60 42.1582 60C43.8199 60 45.2613 58.8481 45.6352 57.2227L46.5492 53.2441C47.7926 47.8359 48.4863 42.327 49.0031 36.8004C49.4262 32.2652 50.5184 27.9199 53.2559 24.2203C55.8281 20.7504 56.966 16.1578 55.7789 11.2793Z" fill="white"/>
</svg>
